<svg width="1823" height="1824" xmlns="http://www.w3.org/2000/svg" xmlns:xlink="http://www.w3.org/1999/xlink" xml:space="preserve" overflow="hidden"><g transform="translate(-211 -676)"><path d="M1492.58 322.918 330.419 322.918C294.916 323.288 266.224 351.98 265.854 387.482L265.854 1171.98C265.56 1207.34 293.987 1236.25 329.352 1236.54 329.707 1236.55 330.064 1236.55 330.419 1236.54L1040.63 1236.54 1298.89 1500.5 1298.89 1238.44 1492.58 1238.44C1528.08 1238.07 1556.78 1209.38 1557.15 1173.88L1557.15 389.4C1557.6 353.242 1528.74 323.522 1492.58 322.918ZM911.5 1025.44C911.5 1025.44 661.027 833.871 661.027 679.125 661.027 575.973 818.641 465.454 911.5 649.653 1004.32 465.454 1161.95 575.973 1161.95 679.125 1161.95 833.871 911.5 1025.44 911.5 1025.44Z" transform="matrix(1 0 0 1.00055 211 676)"/></g></svg>